<svg width="26" height="26" viewBox="0 0 26 26" fill="none" xmlns="http://www.w3.org/2000/svg">
<path fill-rule="evenodd" clip-rule="evenodd" d="M13.0002 25.7999C20.0694 25.7999 25.8002 20.0692 25.8002 13C25.8002 5.93071 20.0694 0.199951 13.0002 0.199951C5.93095 0.199951 0.200195 5.93071 0.200195 13C0.200195 20.0692 5.93095 25.7999 13.0002 25.7999ZM18.9316 10.9313C19.5564 10.3065 19.5564 9.29342 18.9316 8.66858C18.3067 8.04374 17.2937 8.04374 16.6688 8.66858L11.4002 13.9372L9.33157 11.8686C8.70673 11.2437 7.69366 11.2437 7.06882 11.8686C6.44399 12.4934 6.44399 13.5065 7.06882 14.1313L10.2688 17.3313C10.8937 17.9562 11.9067 17.9562 12.5316 17.3313L18.9316 10.9313Z" fill="#007AFF"/>
</svg>
