<svg width="33" height="32" viewBox="0 0 33 32" fill="none" xmlns="http://www.w3.org/2000/svg">
<path d="M15.0074 16.5784L17.0779 14.5077C17.1186 14.4671 17.1508 14.4189 17.1728 14.3658C17.1948 14.3127 17.2062 14.2559 17.2062 14.1984C17.2062 14.141 17.1948 14.0841 17.1728 14.031C17.1508 13.978 17.1186 13.9297 17.0779 13.8892L15.9749 12.7862C16.2016 12.3707 16.3834 11.9322 16.5172 11.4782H18.0762C18.1922 11.4782 18.3035 11.4321 18.3855 11.35C18.4676 11.268 18.5137 11.1567 18.5137 11.0407V8.11266C18.5137 7.99663 18.4676 7.88535 18.3855 7.8033C18.3035 7.72125 18.1922 7.67516 18.0762 7.67516H16.5207C16.3868 7.2205 16.2044 6.78155 15.9767 6.36591L17.0779 5.26441C17.1186 5.2238 17.1508 5.17557 17.1728 5.12249C17.1948 5.0694 17.2062 5.0125 17.2062 4.95503C17.2062 4.89757 17.1948 4.84067 17.1728 4.78758C17.1508 4.7345 17.1186 4.68627 17.0779 4.64566L15.0074 2.57491C14.9668 2.53426 14.9186 2.50201 14.8656 2.48C14.8125 2.458 14.7556 2.44667 14.6982 2.44667C14.6407 2.44667 14.5838 2.458 14.5308 2.48C14.4777 2.50201 14.4295 2.53426 14.3889 2.57491L13.2874 3.67666C12.8718 3.4489 12.4328 3.26651 11.9782 3.13266V1.57666C11.9782 1.5192 11.9669 1.46229 11.9449 1.4092C11.9229 1.3561 11.8907 1.30786 11.8501 1.26723C11.8095 1.2266 11.7612 1.19437 11.7081 1.1724C11.655 1.15042 11.5981 1.13913 11.5407 1.13916H8.61241C8.55495 1.13913 8.49804 1.15042 8.44495 1.1724C8.39185 1.19437 8.34361 1.2266 8.30298 1.26723C8.26235 1.30786 8.23012 1.3561 8.20815 1.4092C8.18617 1.46229 8.17488 1.5192 8.17491 1.57666V3.13541C7.72097 3.26932 7.28259 3.45117 6.86716 3.67791L5.76441 2.57491C5.7238 2.53425 5.67557 2.50199 5.62249 2.47999C5.5694 2.45798 5.5125 2.44665 5.45503 2.44665C5.39757 2.44665 5.34067 2.45798 5.28758 2.47999C5.2345 2.50199 5.18627 2.53425 5.14566 2.57491L3.07491 4.64566C3.03425 4.68627 3.00199 4.7345 2.97999 4.78758C2.95798 4.84067 2.94665 4.89757 2.94665 4.95503C2.94665 5.0125 2.95798 5.0694 2.97999 5.12249C3.00199 5.17557 3.03425 5.2238 3.07491 5.26441L4.17741 6.36716C3.95069 6.78268 3.76883 7.22115 3.63491 7.67516H2.07666C2.0192 7.67513 1.96229 7.68642 1.9092 7.7084C1.8561 7.73037 1.80786 7.7626 1.76723 7.80323C1.7266 7.84386 1.69437 7.8921 1.6724 7.9452C1.65042 7.99829 1.63913 8.0552 1.63916 8.11266V11.0407C1.63913 11.0981 1.65042 11.155 1.6724 11.2081C1.69437 11.2612 1.7266 11.3095 1.76723 11.3501C1.80786 11.3907 1.8561 11.4229 1.9092 11.4449C1.96229 11.4669 2.0192 11.4782 2.07666 11.4782H3.63241C3.76633 11.9328 3.9488 12.3718 4.17666 12.7874L3.07491 13.8892C3.03426 13.9297 3.00201 13.978 2.98 14.031C2.958 14.0841 2.94667 14.141 2.94667 14.1984C2.94667 14.2559 2.958 14.3127 2.98 14.3658C3.00201 14.4189 3.03426 14.4671 3.07491 14.5077L5.14516 16.5784C5.22727 16.6603 5.33854 16.7064 5.45454 16.7064C5.57053 16.7064 5.6818 16.6603 5.76391 16.5784L6.86541 15.4767C7.28117 15.7044 7.72019 15.8869 8.17491 16.0209V17.5769C8.17491 17.6929 8.221 17.8042 8.30305 17.8863C8.3851 17.9683 8.49638 18.0144 8.61241 18.0144H11.5407C11.6567 18.0144 11.768 17.9683 11.85 17.8863C11.9321 17.8042 11.9782 17.6929 11.9782 17.5769V16.0179C12.4321 15.884 12.8705 15.7021 13.2859 15.4754L14.3889 16.5784C14.4709 16.6604 14.5822 16.7064 14.6982 16.7064C14.8141 16.7064 14.9254 16.6604 15.0074 16.5784ZM13.6672 14.6192C13.5977 14.5495 13.5067 14.5054 13.4091 14.4939C13.3114 14.4824 13.2127 14.5041 13.1289 14.5557C12.6062 14.877 12.0358 15.1133 11.4389 15.2557C11.3434 15.2786 11.2584 15.333 11.1975 15.41C11.1366 15.4871 11.1034 15.5824 11.1032 15.6807V17.1382H9.04991V15.6847C9.04977 15.5863 9.01652 15.4909 8.95551 15.4138C8.89451 15.3367 8.80931 15.2824 8.71366 15.2597C8.11688 15.1169 7.54676 14.8797 7.02491 14.5569C6.94105 14.5052 6.8422 14.4833 6.74434 14.4947C6.64648 14.5061 6.55534 14.5503 6.48566 14.6199L5.45491 15.6499L4.00341 14.1979L5.03341 13.1677C5.103 13.098 5.14708 13.0069 5.15851 12.9091C5.16994 12.8113 5.14806 12.7125 5.09641 12.6287C4.77366 12.1065 4.53657 11.536 4.39416 10.9389C4.37141 10.8433 4.3171 10.7581 4.23999 10.6971C4.16289 10.6361 4.06748 10.6028 3.96916 10.6027H2.51416V8.54991H3.97141C4.06965 8.54975 4.16498 8.51655 4.24207 8.45566C4.31916 8.39476 4.37352 8.3097 4.39641 8.21416C4.5386 7.61741 4.77489 7.04711 5.09641 6.52466C5.14785 6.44077 5.16956 6.34201 5.15804 6.24428C5.14652 6.14655 5.10244 6.05554 5.03291 5.98591L4.00341 4.95491L5.45491 3.50341L6.48591 4.53441C6.55548 4.60396 6.64645 4.64805 6.74414 4.65957C6.84184 4.6711 6.94057 4.64937 7.02441 4.59791C7.54702 4.27654 8.11739 4.04026 8.71416 3.89791C8.80968 3.87498 8.89471 3.82061 8.9556 3.74353C9.01649 3.66645 9.04971 3.57114 9.04991 3.47291V2.01416H11.1032V3.46891C11.1033 3.56723 11.1366 3.66264 11.1976 3.73974C11.2586 3.81685 11.3438 3.87116 11.4394 3.89391C12.0365 4.03627 12.607 4.27327 13.1292 4.59591C13.2129 4.64778 13.3118 4.66979 13.4096 4.65835C13.5075 4.64691 13.5986 4.6027 13.6682 4.53291L14.6982 3.50291L16.1499 4.95491L15.1199 5.98516C15.0503 6.05489 15.0063 6.14602 14.9949 6.24385C14.9834 6.34169 15.0053 6.44052 15.0569 6.52441C15.3797 7.04646 15.6167 7.61686 15.7589 8.21391C15.7817 8.30956 15.836 8.39476 15.9131 8.45576C15.9902 8.51677 16.0856 8.55002 16.1839 8.55016H17.6387V10.6032H16.1812C16.0829 10.6034 15.9876 10.6366 15.9105 10.6976C15.8334 10.7585 15.779 10.8436 15.7562 10.9392C15.6138 11.5359 15.3776 12.1063 15.0562 12.6289C15.0046 12.7127 14.9829 12.8114 14.9944 12.9091C15.0059 13.0067 15.05 13.0977 15.1197 13.1672L16.1499 14.1984L14.6982 15.6499L13.6672 14.6192Z" fill="white"/>
<path d="M10.0766 5.78931C9.32751 5.78931 8.59529 6.01142 7.97248 6.42757C7.34967 6.84372 6.86424 7.43521 6.5776 8.12724C6.29095 8.81927 6.21595 9.58076 6.36208 10.3154C6.50821 11.0501 6.86891 11.7249 7.39857 12.2545C7.92822 12.7842 8.60305 13.1449 9.3377 13.291C10.0724 13.4372 10.8338 13.3622 11.5259 13.0755C12.2179 12.7889 12.8094 12.3035 13.2255 11.6806C13.6417 11.0578 13.8638 10.3256 13.8638 9.57656C13.8627 8.57246 13.4633 7.60981 12.7533 6.89981C12.0433 6.18981 11.0807 5.79043 10.0766 5.78931ZM10.0766 12.4893C9.50059 12.4893 8.93756 12.3185 8.45865 11.9985C7.97974 11.6786 7.60647 11.2238 7.38604 10.6916C7.1656 10.1595 7.1079 9.574 7.22023 9.00909C7.33256 8.44418 7.60987 7.92527 8.01711 7.51796C8.42435 7.11066 8.94321 6.83325 9.5081 6.72083C10.073 6.6084 10.6585 6.666 11.1907 6.88634C11.7228 7.10669 12.1777 7.47988 12.4978 7.95873C12.8178 8.43758 12.9887 9.00059 12.9888 9.57656C12.9879 10.3486 12.6808 11.0889 12.1348 11.6348C11.5889 12.1808 10.8487 12.4879 10.0766 12.4888V12.4893Z" fill="white"/>
<path d="M30.9231 20.5216H29.3671C29.2333 20.0669 29.0509 19.628 28.8231 19.2124L29.9246 18.1106C29.9652 18.07 29.9975 18.0218 30.0195 17.9687C30.0415 17.9157 30.0528 17.8588 30.0528 17.8014C30.0528 17.7439 30.0415 17.687 30.0195 17.634C29.9975 17.5809 29.9652 17.5327 29.9246 17.4921L27.8541 15.4219C27.8135 15.3812 27.7653 15.3489 27.7122 15.3269C27.6591 15.3049 27.6022 15.2936 27.5447 15.2936C27.4873 15.2936 27.4304 15.3049 27.3773 15.3269C27.3242 15.3489 27.276 15.3812 27.2353 15.4219L26.1338 16.5231C25.7182 16.2954 25.2794 16.1129 24.8248 15.9789V14.4229C24.8248 14.3068 24.7788 14.1955 24.6967 14.1135C24.6147 14.0314 24.5034 13.9854 24.3873 13.9854H21.4591C21.3431 13.9854 21.2318 14.0314 21.1497 14.1135C21.0677 14.1955 21.0216 14.3068 21.0216 14.4229V15.9819C20.5676 16.1157 20.1291 16.2976 19.7136 16.5244L18.6108 15.4219C18.5703 15.3812 18.5221 15.3489 18.469 15.3269C18.4159 15.3049 18.359 15.2936 18.3016 15.2936C18.2441 15.2936 18.1873 15.3049 18.1342 15.3269C18.0811 15.3489 18.0329 15.3812 17.9923 15.4219L15.9216 17.4921C15.8396 17.5741 15.7936 17.6854 15.7936 17.8014C15.7936 17.9173 15.8396 18.0286 15.9216 18.1106L17.0248 19.2136C16.798 19.629 16.6162 20.0675 16.4826 20.5216H14.9231C14.8071 20.5216 14.6958 20.5677 14.6137 20.6497C14.5317 20.7318 14.4856 20.8431 14.4856 20.9591V23.8871C14.4856 24.0031 14.5317 24.1144 14.6137 24.1965C14.6958 24.2785 14.8071 24.3246 14.9231 24.3246H16.4791C16.6129 24.7793 16.7953 25.2182 17.0231 25.6339L15.9216 26.7354C15.8396 26.8174 15.7935 26.9287 15.7935 27.0447C15.7935 27.1607 15.8396 27.272 15.9216 27.3541L17.9923 29.4249C18.0329 29.4655 18.0811 29.4978 18.1342 29.5198C18.1873 29.5418 18.2441 29.5531 18.3016 29.5531C18.359 29.5531 18.4159 29.5418 18.469 29.5198C18.5221 29.4978 18.5703 29.4655 18.6108 29.4249L19.7123 28.3249C20.128 28.5527 20.5669 28.735 21.0216 28.8689V30.4249C21.0216 30.4823 21.0329 30.5392 21.0548 30.5923C21.0768 30.6454 21.109 30.6937 21.1497 30.7343C21.1903 30.7749 21.2385 30.8071 21.2916 30.8291C21.3447 30.8511 21.4016 30.8624 21.4591 30.8624H24.3871C24.4446 30.8624 24.5015 30.8511 24.5546 30.8291C24.6077 30.8071 24.6559 30.7749 24.6965 30.7343C24.7372 30.6937 24.7694 30.6454 24.7914 30.5923C24.8133 30.5392 24.8246 30.4823 24.8246 30.4249V28.8661C25.2786 28.7322 25.7171 28.5502 26.1326 28.3234L27.2353 29.4261C27.276 29.4668 27.3242 29.499 27.3773 29.521C27.4304 29.543 27.4873 29.5544 27.5447 29.5544C27.6022 29.5544 27.6591 29.543 27.7122 29.521C27.7653 29.499 27.8135 29.4668 27.8541 29.4261L29.9246 27.3559C29.9653 27.3152 29.9975 27.267 30.0195 27.2139C30.0415 27.1608 30.0529 27.1039 30.0529 27.0465C30.0529 26.989 30.0415 26.9321 30.0195 26.879C29.9975 26.8259 29.9653 26.7777 29.9246 26.7371L28.8218 25.6341C29.0486 25.2187 29.2304 24.7803 29.3643 24.3264H30.9231C30.9806 24.3264 31.0375 24.3151 31.0906 24.2931C31.1437 24.2711 31.1919 24.2389 31.2325 24.1983C31.2732 24.1577 31.3054 24.1094 31.3274 24.0563C31.3493 24.0032 31.3606 23.9463 31.3606 23.8889V20.9591C31.3606 20.9016 31.3493 20.8447 31.3274 20.7916C31.3054 20.7385 31.2732 20.6903 31.2325 20.6497C31.1919 20.609 31.1437 20.5768 31.0906 20.5548C31.0375 20.5329 30.9806 20.5216 30.9231 20.5216ZM30.4856 23.4499H29.0283C28.9301 23.45 28.8348 23.4832 28.7577 23.5441C28.6806 23.605 28.6262 23.6901 28.6033 23.7856C28.461 24.3824 28.2247 24.9527 27.9033 25.4754C27.8519 25.5592 27.8302 25.6579 27.8417 25.7556C27.8533 25.8533 27.8973 25.9443 27.9668 26.0139L28.9981 27.0451L27.5463 28.4966L26.5153 27.4656C26.4457 27.3962 26.3548 27.3522 26.2571 27.3406C26.1594 27.3291 26.0607 27.3508 25.9768 27.4021C25.4541 27.7234 24.8837 27.9597 24.2868 28.1021C24.1913 28.125 24.1062 28.1794 24.0454 28.2564C23.9845 28.3335 23.9513 28.4289 23.9511 28.5271V29.9844H21.8966V28.5296C21.8965 28.4313 21.8632 28.3359 21.8022 28.2588C21.7412 28.1817 21.656 28.1274 21.5603 28.1046C20.9633 27.9622 20.3928 27.7252 19.8706 27.4026C19.7868 27.3508 19.688 27.3288 19.5901 27.3402C19.4923 27.3517 19.4012 27.3958 19.3316 27.4656L18.3016 28.4956L16.8498 27.0449L17.8798 26.0146C17.9495 25.9449 17.9937 25.8538 18.0051 25.7559C18.0165 25.6581 17.9946 25.5592 17.9428 25.4754C17.6203 24.9532 17.3834 24.3829 17.2411 23.7859C17.2183 23.6902 17.164 23.605 17.0869 23.544C17.0098 23.483 16.9144 23.4497 16.8161 23.4496H15.3606V21.3966H16.8178C16.9161 21.3964 17.0114 21.3631 17.0885 21.3022C17.1656 21.2413 17.22 21.1562 17.2428 21.0606C17.3852 20.4638 17.6214 19.8934 17.9428 19.3709C17.9944 19.2871 18.0161 19.1884 18.0046 19.0907C17.9931 18.993 17.949 18.9021 17.8793 18.8326L16.8498 17.8014L18.3016 16.3499L19.3326 17.3809C19.402 17.4505 19.493 17.4947 19.5907 17.5063C19.6884 17.5178 19.7871 17.496 19.8708 17.4444C20.3935 17.123 20.964 16.8867 21.5608 16.7444C21.6564 16.7214 21.7414 16.667 21.8023 16.59C21.8632 16.5129 21.8964 16.4176 21.8966 16.3194V14.8619H23.9498V16.3166C23.95 16.4149 23.9832 16.5103 24.0442 16.5874C24.1052 16.6645 24.1904 16.7188 24.2861 16.7416C24.8831 16.8841 25.4535 17.1212 25.9756 17.4439C26.0594 17.4957 26.1583 17.5177 26.2562 17.5063C26.3541 17.4948 26.4452 17.4506 26.5148 17.3809L27.5448 16.3499L28.9966 17.8016L27.9663 18.8319C27.8967 18.9015 27.8526 18.9926 27.8412 19.0904C27.8297 19.1882 27.8516 19.287 27.9033 19.3709C28.226 19.8929 28.4629 20.4633 28.6051 21.0604C28.6278 21.156 28.6821 21.2413 28.7592 21.3024C28.8363 21.3634 28.9317 21.3967 29.0301 21.3969H30.4848L30.4856 23.4499Z" fill="white"/>
<path d="M22.9232 18.636C22.1742 18.636 21.442 18.8581 20.8192 19.2743C20.1963 19.6904 19.7109 20.2819 19.4243 20.9739C19.1376 21.6659 19.0626 22.4274 19.2088 23.1621C19.3549 23.8967 19.7156 24.5716 20.2452 25.1012C20.7749 25.6309 21.4497 25.9916 22.1844 26.1377C22.919 26.2838 23.6805 26.2088 24.3726 25.9222C25.0646 25.6356 25.6561 25.1501 26.0722 24.5273C26.4884 23.9045 26.7105 23.1723 26.7105 22.4232C26.7094 21.4191 26.31 20.4565 25.6 19.7465C24.89 19.0365 23.9273 18.6371 22.9232 18.636ZM22.9232 25.336C22.3472 25.336 21.7842 25.1652 21.3053 24.8452C20.8264 24.5252 20.4531 24.0704 20.2327 23.5382C20.0122 23.0061 19.9546 22.4205 20.0669 21.8556C20.1793 21.2907 20.4567 20.7718 20.864 20.3645C21.2713 19.9572 21.7902 19.6798 22.3551 19.5674C22.92 19.4551 23.5056 19.5127 24.0377 19.7332C24.5699 19.9536 25.0247 20.3269 25.3447 20.8058C25.6647 21.2847 25.8355 21.8477 25.8355 22.4237C25.8345 23.1958 25.5273 23.9359 24.9814 24.4817C24.4354 25.0276 23.6953 25.3346 22.9232 25.3355V25.336Z" fill="white"/>
<path d="M19.6777 5.2142C22.2196 5.96252 24.4149 7.58596 25.8749 9.7972C25.5248 10.1142 25.3033 10.5488 25.2528 11.0184C25.2023 11.488 25.3262 11.9598 25.6009 12.344C25.8757 12.7282 26.282 12.998 26.7428 13.1021C27.2035 13.2061 27.6864 13.1371 28.0995 12.9083C28.5127 12.6794 28.8273 12.3066 28.9835 11.8609C29.1397 11.4151 29.1265 10.9275 28.9465 10.4908C28.7666 10.0541 28.4323 9.69885 28.0074 9.49259C27.5825 9.28633 27.0966 9.24348 26.6422 9.3722C25.0693 6.96003 22.6874 5.18809 19.9249 4.37495C19.8695 4.35748 19.8111 4.35124 19.7532 4.3566C19.6953 4.36195 19.639 4.3788 19.5877 4.40615C19.5364 4.4335 19.491 4.47081 19.4543 4.51589C19.4175 4.56098 19.3902 4.61293 19.3738 4.66871C19.3573 4.7245 19.3522 4.783 19.3587 4.84079C19.3651 4.89858 19.383 4.95451 19.4113 5.0053C19.4397 5.05609 19.4778 5.10072 19.5236 5.13659C19.5694 5.17246 19.6218 5.19885 19.6779 5.2142H19.6777ZM28.1999 11.2185C28.1999 11.4247 28.1387 11.6264 28.0241 11.7979C27.9095 11.9694 27.7466 12.1031 27.5561 12.1821C27.3655 12.261 27.1558 12.2817 26.9534 12.2414C26.7511 12.2012 26.5653 12.1018 26.4194 11.956C26.2735 11.8101 26.1742 11.6243 26.134 11.4219C26.0937 11.2196 26.1144 11.0099 26.1933 10.8193C26.2723 10.6287 26.4059 10.4658 26.5775 10.3512C26.749 10.2366 26.9506 10.1755 27.1569 10.1755C27.4335 10.1757 27.6986 10.2857 27.8941 10.4812C28.0897 10.6768 28.1997 10.9419 28.1999 11.2185Z" fill="white"/>
<path d="M13.322 26.7857C10.7806 26.0371 8.58579 24.4137 7.12604 22.2027C7.47621 21.8858 7.69761 21.4511 7.74814 20.9815C7.79866 20.5119 7.67476 20.0401 7.40003 19.6559C7.1253 19.2717 6.71891 19.0019 6.25819 18.8979C5.79747 18.7938 5.31458 18.8628 4.90141 19.0917C4.48825 19.3205 4.17364 19.6933 4.01746 20.1391C3.86128 20.5848 3.87444 21.0724 4.05441 21.5091C4.23439 21.9458 4.56864 22.3011 4.99354 22.5073C5.41845 22.7136 5.90435 22.7564 6.35879 22.6277C7.93135 25.0397 10.3127 26.8116 13.0748 27.625C13.115 27.6368 13.1567 27.6428 13.1985 27.6427C13.3036 27.6425 13.4051 27.6045 13.4844 27.5356C13.5638 27.4667 13.6157 27.3715 13.6306 27.2675C13.6456 27.1635 13.6226 27.0576 13.5659 26.9691C13.5092 26.8807 13.4225 26.8156 13.3218 26.7857H13.322ZM4.79979 20.7815C4.79989 20.5752 4.86115 20.3736 4.97581 20.2022C5.09048 20.0307 5.25341 19.8971 5.444 19.8182C5.63459 19.7394 5.84429 19.7188 6.04658 19.7591C6.24887 19.7994 6.43467 19.8988 6.58048 20.0446C6.7263 20.1905 6.82558 20.3764 6.86579 20.5787C6.90599 20.781 6.88531 20.9907 6.80635 21.1812C6.72739 21.3718 6.59371 21.5346 6.4222 21.6492C6.25069 21.7638 6.04906 21.825 5.84279 21.825C5.56617 21.8247 5.30095 21.7147 5.1054 21.519C4.90984 21.3234 4.79992 21.0581 4.79979 20.7815Z" fill="white"/>
</svg>
